<svg id="Layer_1" data-name="Layer 1" xmlns="http://www.w3.org/2000/svg" viewBox="0 0 700 700"><defs><style>.cls-1{fill:#fff;}</style></defs><path class="cls-1" d="M0,350V700H700V0H0ZM105.8,204.7c8.9.3,16.5,1,16.8,1.4s2.5.9,4.8.9a11.3,11.3,0,0,1,6.9,2,9.48,9.48,0,0,0,3.9,2c.8,0,2.5,1.1,3.8,2.5,2.1,2.3,2.5,3.8,3.1,14.4.3,6.6.4,14.6,0,17.8-.5,5-.9,5.8-2.8,6.1-2.6.4-4.6-2.9-6.8-11.5a21.36,21.36,0,0,0-5.2-9.6c-3.8-3.8-12.7-8.7-16-8.7a36.94,36.94,0,0,1-6.7-1.5c-6.5-2-22.5-2-27.3,0a20.16,20.16,0,0,1-6,1.5c-3.2,0-10.1,5-13.3,9.7-2.4,3.4-2.5,4.4-2.5,16.9v13.3l3,3.1c3.8,4,10.1,7.6,14.7,8.4a29.16,29.16,0,0,1,6.5,2.1,15.11,15.11,0,0,0,5.8,1.5,14.33,14.33,0,0,1,5.5,1.3c1.5.8,5.5,1.7,9,2a57,57,0,0,1,10.5,2.1,31.06,31.06,0,0,0,6.8,1.6c3.7,0,13.9,5.2,18.7,9.7a38.25,38.25,0,0,1,7.3,10.2l3.2,6.6.2,60c.2,60,0,64.7-3.1,76.1-3.1,11.7-12.4,27.4-16.2,27.4a1.37,1.37,0,0,0-1.4,1.4c0,1,2.4,1.6,9.3,2.1,8.4.7,11.7,1.6,11.7,3.4,0,1.5-7,3.1-13.6,3.1-6.3,0-7.3-.3-10.7-3.1l-3.7-3.1-3.6,3.1a12.61,12.61,0,0,1-13.9,1.9,4.78,4.78,0,0,0-4.9.1c-1.7,1-4.8,1.1-10.7.7-4.6-.4-11.3-.9-14.9-1-10-.6-17.3-1.6-19.8-2.9-3.1-1.5-5.8-6.5-4.3-8,2-2,1.3-4.7-1.3-4.7-4.4,0-5.1-2.2-5.3-17.9-.1-8-.6-16.8-1.1-19.5-.7-3.4-.7-5.7.1-7.3.8-1.8.8-3.6,0-6.6s-.9-10.8-.1-28.2c.6-13.2,1.1-31.2,1.2-40,.1-15.5.8-20.3,2.7-17.4,1.2,2.1,1.8,13.3,2.3,43.9.7,41.8,3.3,58.7,12.1,77.2C62.8,456,74.3,467,77.1,467a6.83,6.83,0,0,1,3.3,1.5c1.5,1.1,4.8,1.5,12.8,1.5,16.3,0,23.6-3.4,30.7-14.4,4.5-7.1,6.5-12.6,8-22.2.6-3.8,1.5-8.9,1.9-11.4s.7-28.2.7-57.2c-.2-47.8-.3-52.9-1.8-54.6a6.83,6.83,0,0,1-1.7-2.8c0-1.5-7.2-6.9-12-9.1-4.2-1.9-7.6-2.5-28-5.4a93.44,93.44,0,0,1-11.5-2.4c-2.2-.7-6.5-1.9-9.5-2.5-6.4-1.5-13.4-4.8-17.8-8.5-5.5-4.6-11.9-18.5-10.1-21.7.4-.8.2-3.1-.6-5.4-1.6-4.3-1.9-7.7-.8-8.8.4-.3.8-2.6.9-5a28,28,0,0,1,2.9-9.9c3.1-6.1,12.9-17.7,15-17.7a4.22,4.22,0,0,0,2.5-1.5,12.34,12.34,0,0,1,5.4-2.5,54.63,54.63,0,0,0,6.1-2c2.4-1.1,10-1.9,13.5-1.3C88.4,203.9,96.8,204.3,105.8,204.7Zm171.3,1.9a27.53,27.53,0,0,1,2.4,3.8,3.29,3.29,0,0,0,3.6,1.8c1.3-.1,13.4-.4,26.9-.6s25.2-.6,26.2-1c3.5-1.6,12.4,5.9,15.9,13.4,4,8.5,5.1,11.8,5.6,16.8.5,4.4.2,5.8-1.6,8.2-2.3,3.2-2.7,5.5-1,6.6.6.3,1.7,2.2,2.5,4.1,1.8,4.1.4,13.3-2.8,19.7-3.1,6.1-11.3,14.1-17.6,17.2-5,2.4-7,2.8-16.2,3-6,.1-10.6.7-10.8,1.3-.5,1.6,1.7,5.1,3.4,5.1,2.2,0,15.4,10.8,16.4,13.5,1.2,3.2,2.7,46.5,1.8,53.5-1,8.6-.9,34.8.2,41.7.9,5.5,2.4,8.9,9.1,20.3,1.1,2,6.3,12,13.8,26.5,7,13.5,9.1,16,14.7,18s5,3.9-1.1,4.6c-6.7.8-15.7-.3-18.7-2.3-1.4-.9-4-4.3-5.8-7.5s-4.2-7.4-5.3-9.3-3.4-6-5-9-4.1-7.3-5.4-9.5-2.6-4.7-2.9-5.5-2.4-4.4-4.5-8c-6-10.6-7.1-15.7-7.2-35.8,0-9.7.4-20.5,1.1-24,.8-4.5.8-7.1,0-9-.6-1.6-1-10.4-.9-21.9l.1-19.2-3.4-2.6a15.1,15.1,0,0,0-4.1-2.5c-.9,0-19.9-17.1-23.2-20.9-3-3.4-2.9-5.7.2-7.7,2.1-1.4,4.4-1.6,13.8-1.2,18.8.9,30.6-2.5,37.2-10.7,5.3-6.4,6.8-11.6,7.2-24.6.4-10.7.2-11.9-2.1-16.5-2.4-4.9-5.9-8.2-12.5-11.7-2.9-1.6-6.5-2-23.1-2.4-17-.5-20-.4-22.8,1.1-1.7.9-3.2,2.4-3.3,3.4s-.1,56.2,0,122.8V470.7l2.2,3.7c2.9,5,2,6.6-3.6,6.6a18.14,18.14,0,0,0-6.7,1.1c-2.5,1.3-9.6-.4-10.4-2.5-.3-.8.2-3.8,1-6.7a35,35,0,0,0,1.5-9.4c-.1-3.1.8-34.9,1.2-45,.1-1.1-.2-5.6-.5-10s-.7-47.8-.9-96.5c-.4-96.2-.1-92.5-6.1-98.8-2.5-2.6-2.8-3.6-2-5,1-1.4,2.5-1.6,9.7-1.3,5.4.2,8.7-.1,9.1-.8C273.4,204.5,275.5,204.7,277.1,206.6Zm-51.8.3c1.9.3.3,4.2-2.8,6.8l-3.4,2.9-.7,56.9c-.4,31.4-.5,59-.4,61.5.4,5.1.5,30.4.1,36.5-.1,2.2,0,25.6.1,52l.3,48,2.7,4c4,5.7,2.5,6.9-8.9,6.7-15.1-.3-24.5-2.3-17.5-3.8,7.4-1.5,8.1-8.1,8.2-72.4.1-32.8-.6-61.6-1.5-67.8a14.44,14.44,0,0,1,.8-8c1.2-3.1,1.3-5.4.5-12.9-.6-5.8-.6-18.2-.1-33.5.5-13.4.6-30.6.3-38.3-.3-7.9-.1-15,.4-16.3.7-1.7.5-3.1-.8-5.3a8.14,8.14,0,0,1-1.2-5.4c.5-1.9,0-2.6-3.1-4.2-4.2-2.2-5.9-4.4-5-6.5.5-1.3,3-1.5,15.9-1.3C217.6,206.6,224.8,206.8,225.3,206.9Zm271.4,3.3c2.4,2.2,3.3,6.2,3.4,15.3A100.58,100.58,0,0,0,501,236c1.8,9.5,1.9,10.8.7,12.4a2.46,2.46,0,0,1-3.1,1c-1.9-.7-7.6-11.6-7.6-14.5a4.57,4.57,0,0,0-1.5-2.9,4.31,4.31,0,0,1-1.5-2.4c0-.7-1.4-2.5-3.1-4.2l-3-2.9-32.9-.3c-32.1-.3-32.9-.3-34.9,1.7s-2.1,3.1-2.1,31v29l13.3.3c7.2.2,17.1.2,21.9,0l8.7-.3,3.1-4.6c1.6-2.6,3-5.9,3-7.4,0-3.8,2.5-6.2,5.1-4.9,2.8,1.6,3.2,4.7,1.4,12.3s-1.4,12.7,1.6,24.9c2,8,1.8,12.3-.7,13.2-1.6.6-3.4-1.8-6.3-8.5-1.2-2.6-2.7-5.2-3.6-5.9-1.1-.9-7.1-1.1-23.4-.8-21.3.3-22.1.4-24.3,2.6-2,1.9-2.1,2.5-1,4.3s1.3,17.2,1.3,80l-.1,77.8,2.3,1.5c1.8,1.3,3.3,1.4,7.7.5a49.81,49.81,0,0,1,7-.9c.8,0,8,0,15.9-.1,10.8,0,14.6.3,15.3,1.3s1,1.1,1.7-.1c.6-1,2.8-1.2,8.2-1,8.6.3,15.7-1.4,18.2-4.4,4.3-5.3,6.4-9.6,7.1-14.5a29.15,29.15,0,0,1,1.6-7c.4-1,1.5-3.8,2.4-6.3,1.9-5.3,5.6-9.2,7.9-8.4s2.9,3.3,1.8,6.9c-.6,1.7-1.5,9.8-2.1,18.1s-1.6,15.5-2.1,16.2-.9,2.7-.7,4.5l.3,3.3,6.7.5c3.6.3,7,.9,7.5,1.3,2.8,2.9-12.1,7.2-16.5,4.8-1.5-.8-2.9-.7-5.6.4a24.62,24.62,0,0,1-8.4,1.6c-2.6,0-14.7.1-26.8.3-21.2.3-22.3.4-25.4,2.6-2.8,2-3.9,2.2-9.2,1.6a25.52,25.52,0,0,1-9.5-2.7c-2.9-1.8-3.8-2-5.8-.9a9,9,0,0,1-5.5.5c-2.2-.5-3.5-.3-4.3.8-.7.9-3.8,1.8-7.8,2.2-7.7.7-8.2.2-7.2-7.1.5-4,.9-4.6,3.5-5.1,1.5-.3,3.1-1,3.4-1.5s.7-15.1.7-32.5c.2-25.7.5-31.7,1.6-32.1s1.1-.6,0-1.3c-2.2-1.3-2.5-124-.4-128.2,1.3-2.6,1.3-3.5,0-7.5-1.3-3.6-1.5-9.1-1.4-26.6.1-22.8-.3-27.5-2.6-33.8-1.2-3-1.2-3.8-.1-4.7,1.8-1.5,37.5-1.3,39.4.1a1.67,1.67,0,0,0,2.5-.1c1.4-1.1,28.9-1.9,49.7-1.3C492.9,208.1,494.8,208.4,496.7,210.2Zm154.1.1a7.48,7.48,0,0,1,.1,10.4c-2,2-2.2,3.2-2,13.5.2,12.4,1,39.4,1.2,41.8a38,38,0,0,1-.6,6.2,11.46,11.46,0,0,0,.9,7.9c1.3,2.6,1.6,6.7,1.7,21.2,0,15.5-.2,18.5-1.7,21.3-1.8,3.3-1.8,3.5.1,6.6s1.9,5,1.6,23.3c-.2,17.1-.5,20.1-1.9,21.1s-1.5,1.4.2,3.3,1.8,4.2,1.8,30.6c0,16.4-.5,29.1-1,29.8s-1.3,7.2-1.6,14.4c-.6,11.2-.5,13.6.8,15.5,2,2.9,2,6.4,0,7.2a9.63,9.63,0,0,1-10.5-2.3c-1.6-1.6-2.9-3.7-2.9-4.5s-2-4.2-4.3-7.3a118.87,118.87,0,0,1-7.2-10.8,93.73,93.73,0,0,0-6-9c-4.6-5.8-6.6-10.3-7.5-16.5-.4-3-1.5-8.7-2.4-12.5a80.34,80.34,0,0,1-1.6-13.2,37,37,0,0,0-1-8.9c-.6-1.4-1.5-9.1-2-17.1s-1.5-15.3-2-16.3-1.3-5.7-1.6-10.2-1.1-9.9-1.9-11.8a60.28,60.28,0,0,1-2.3-9.5c-2.7-15-3.8-18.6-8.9-28.7a12.9,12.9,0,0,1-1.3-4.6,3.58,3.58,0,0,0-1-2.7c-.6-.4-2.4-3.6-4-7.3s-3.5-7.4-4-8.2a36.33,36.33,0,0,1-2-3.5c-.5-1.1-2.1-3.8-3.5-6a54.13,54.13,0,0,1-4.9-9.5,14.59,14.59,0,0,0-1.6-3,37,37,0,0,1-2-4c-.9-2.3-1.4-3.2-4-7.8-2.3-3.9-5.3-10.9-5.9-13.7-.4-1.7-1.3-3-2.1-3-1.3,0-1.5,14.1-1.4,103.5.1,92,.2,103.8,1.6,106,1.2,1.8,1.7,6.2,2.1,16.4.5,13.8.5,13.8,3.5,16.9,2.7,2.7,3.8,3,10.7,3.5,8.8.5,9.5,2,1.9,4a39.82,39.82,0,0,1-12.4.7c-4.1-.3-11.4-.5-16.1-.5-8.8.2-16.7-1.9-15.4-4,.3-.5,2.4-1.5,4.5-2.1,2.5-.8,4.2-2,4.6-3.3a34.13,34.13,0,0,1,2.2-5.4c1.2-2.8,1.3-3.5.2-4.2a2,2,0,0,1-.7-2.3c.3-.8-.1-3.7-.9-6.3-1.2-4-1.4-22.2-1.4-116.8.1-62-.3-113.7-.8-115.6a37.92,37.92,0,0,0-3.3-7.7c-3.5-6.1-2.3-6.7,11.7-7.1,6.4-.2,12.7-.1,14,.2,3.4.9,10.6,11,16.1,22.6,2.5,5.2,4.9,10.2,5.4,11a37.56,37.56,0,0,1,1.8,3.5,9.71,9.71,0,0,0,2.5,3.4A4.5,4.5,0,0,1,584,252a6.07,6.07,0,0,0,2,3.5,6,6,0,0,1,2,3.3c0,.8,1.3,3.1,2.9,5.1s3.3,4.9,3.6,6.4a9.21,9.21,0,0,0,2.1,3.8,3.44,3.44,0,0,1,1.4,2.2,35.55,35.55,0,0,0,2.4,6.1c4.3,8.9,5.6,12.4,5.6,14.3a7.91,7.91,0,0,0,1.5,3.9A7.12,7.12,0,0,1,609,304a18,18,0,0,0,2,5.3,16.54,16.54,0,0,1,2,6.1,21.71,21.71,0,0,0,2,6.7,23.52,23.52,0,0,1,2,7.9,14.36,14.36,0,0,0,1.5,6,19.24,19.24,0,0,1,1.5,7.1,26,26,0,0,0,1.5,8.2c.8,1.9,1.9,9.8,2.4,17.8s1.5,16.9,2,19.9a144.81,144.81,0,0,1,1.5,15,149.21,149.21,0,0,0,2,16.8A66.52,66.52,0,0,1,631,431c0,3.3,3.2,7.6,4.8,6.6,1.4-.9,1.6-8.8.3-10.2-.6-.5-1.2-35.6-1.5-88.7-.4-77.5-.7-88.1-2-90.2-1.1-1.7-1.6-4.9-1.6-10.7-.1-4.6-.5-11.5-1-15.3-1.1-8.7.2-11.5,5.4-11.5,1.8,0,3.9-.6,4.6-1.4C642.4,206.7,647,207,650.8,210.3Zm18.1,267.6c1.9,1.2.6,4.1-1.8,4.1-2.9,0-5.1-1.1-5.1-2.5C662,477.3,666.3,476.3,668.9,477.9Zm-71.4,1a1.19,1.19,0,0,1-.5,1.6c-1.5.9-4.3-.3-3.5-1.5A2.6,2.6,0,0,1,597.5,478.9Z" transform="translate(0 0)"/><path class="cls-1" d="M321.5,372.9a1.22,1.22,0,0,0,.5,1.6c.5.3,1-.1,1-.9C323,371.8,322.4,371.5,321.5,372.9Z" transform="translate(0 0)"/></svg>